<?xml version="1.0" encoding="UTF-8"?>
<svg xmlns="http://www.w3.org/2000/svg" viewBox="0 0 200 200" role="img" aria-labelledby="title desc">
  <title id="title">Cube logo</title>
  <desc id="desc">Header logo mark for Cube</desc>
  <path d="M61.0,8.0 L58.0,10.0 L56.0,10.0 L55.0,11.0 L54.0,11.0 L53.0,12.0 L52.0,12.0 L51.0,13.0 L50.0,13.0 L49.0,14.0 L48.0,14.0 L47.0,15.0 L44.0,16.0 L42.0,18.0 L41.0,18.0 L38.0,21.0 L37.0,21.0 L33.0,25.0 L32.0,25.0 L26.0,31.0 L26.0,32.0 L22.0,36.0 L22.0,37.0 L19.0,40.0 L19.0,41.0 L17.0,43.0 L17.0,44.0 L16.0,45.0 L16.0,46.0 L15.0,47.0 L15.0,48.0 L14.0,49.0 L14.0,50.0 L13.0,51.0 L13.0,52.0 L10.0,57.0 L10.0,59.0 L9.0,60.0 L9.0,62.0 L8.0,63.0 L8.0,65.0 L7.0,66.0 L7.0,68.0 L6.0,69.0 L6.0,73.0 L5.0,74.0 L5.0,78.0 L4.0,79.0 L4.0,86.0 L3.0,87.0 L3.0,113.0 L4.0,114.0 L4.0,120.0 L5.0,121.0 L5.0,125.0 L6.0,126.0 L6.0,130.0 L7.0,131.0 L7.0,133.0 L8.0,134.0 L8.0,136.0 L9.0,137.0 L9.0,139.0 L10.0,140.0 L10.0,142.0 L11.0,143.0 L11.0,144.0 L12.0,145.0 L12.0,146.0 L13.0,147.0 L13.0,148.0 L14.0,149.0 L14.0,150.0 L15.0,151.0 L15.0,152.0 L16.0,153.0 L17.0,156.0 L19.0,158.0 L19.0,159.0 L22.0,162.0 L22.0,163.0 L26.0,167.0 L26.0,168.0 L32.0,174.0 L33.0,174.0 L37.0,178.0 L38.0,178.0 L41.0,181.0 L42.0,181.0 L44.0,183.0 L45.0,183.0 L46.0,184.0 L47.0,184.0 L48.0,185.0 L49.0,185.0 L50.0,186.0 L51.0,186.0 L56.0,189.0 L58.0,189.0 L61.0,191.0 L63.0,191.0 L64.0,192.0 L66.0,192.0 L67.0,193.0 L71.0,193.0 L72.0,194.0 L76.0,194.0 L77.0,195.0 L83.0,195.0 L84.0,196.0 L112.0,196.0 L113.0,195.0 L118.0,195.0 L119.0,194.0 L123.0,194.0 L124.0,193.0 L128.0,193.0 L129.0,192.0 L131.0,192.0 L132.0,191.0 L134.0,191.0 L137.0,189.0 L139.0,189.0 L140.0,188.0 L141.0,188.0 L142.0,187.0 L143.0,187.0 L144.0,186.0 L145.0,186.0 L146.0,185.0 L149.0,184.0 L151.0,182.0 L152.0,182.0 L154.0,180.0 L155.0,180.0 L159.0,176.0 L160.0,176.0 L166.0,170.0 L166.0,169.0 L170.0,165.0 L170.0,164.0 L174.0,159.0 L174.0,158.0 L175.0,157.0 L175.0,156.0 L176.0,155.0 L176.0,154.0 L179.0,149.0 L179.0,147.0 L180.0,146.0 L180.0,144.0 L181.0,143.0 L181.0,141.0 L182.0,140.0 L182.0,138.0 L183.0,137.0 L183.0,132.0 L184.0,131.0 L184.0,123.0 L185.0,122.0 L185.0,120.0 L184.0,119.0 L129.0,119.0 L129.0,122.0 L128.0,123.0 L128.0,126.0 L127.0,127.0 L127.0,129.0 L126.0,130.0 L126.0,132.0 L125.0,133.0 L124.0,136.0 L122.0,138.0 L122.0,139.0 L115.0,146.0 L114.0,146.0 L112.0,148.0 L111.0,148.0 L110.0,149.0 L108.0,149.0 L107.0,150.0 L104.0,150.0 L103.0,151.0 L94.0,151.0 L93.0,150.0 L90.0,150.0 L89.0,149.0 L87.0,149.0 L86.0,148.0 L83.0,147.0 L81.0,145.0 L80.0,145.0 L74.0,139.0 L74.0,138.0 L72.0,136.0 L71.0,133.0 L69.0,131.0 L69.0,129.0 L68.0,128.0 L68.0,126.0 L67.0,125.0 L67.0,123.0 L66.0,122.0 L66.0,119.0 L65.0,118.0 L65.0,113.0 L64.0,112.0 L64.0,86.0 L65.0,85.0 L65.0,80.0 L66.0,79.0 L66.0,76.0 L67.0,75.0 L67.0,73.0 L68.0,72.0 L68.0,70.0 L69.0,69.0 L69.0,68.0 L70.0,67.0 L71.0,64.0 L73.0,62.0 L73.0,61.0 L81.0,53.0 L82.0,53.0 L83.0,52.0 L84.0,52.0 L89.0,49.0 L93.0,49.0 L94.0,48.0 L103.0,48.0 L104.0,49.0 L107.0,49.0 L108.0,50.0 L110.0,50.0 L111.0,51.0 L114.0,52.0 L116.0,54.0 L117.0,54.0 L121.0,58.0 L121.0,59.0 L124.0,62.0 L124.0,63.0 L126.0,66.0 L126.0,68.0 L127.0,69.0 L127.0,71.0 L128.0,72.0 L128.0,75.0 L129.0,76.0 L129.0,79.0 L184.0,79.0 L185.0,78.0 L185.0,75.0 L184.0,74.0 L184.0,67.0 L183.0,66.0 L183.0,61.0 L182.0,60.0 L182.0,58.0 L181.0,57.0 L181.0,55.0 L180.0,54.0 L180.0,52.0 L179.0,51.0 L179.0,49.0 L178.0,48.0 L178.0,47.0 L177.0,46.0 L177.0,45.0 L176.0,44.0 L175.0,41.0 L173.0,39.0 L173.0,38.0 L171.0,36.0 L171.0,35.0 L167.0,31.0 L167.0,30.0 L160.0,23.0 L159.0,23.0 L155.0,19.0 L154.0,19.0 L152.0,17.0 L149.0,16.0 L147.0,14.0 L146.0,14.0 L145.0,13.0 L144.0,13.0 L139.0,10.0 L137.0,10.0 L134.0,8.0 L132.0,8.0 L131.0,7.0 L129.0,7.0 L128.0,6.0 L124.0,6.0 L123.0,5.0 L119.0,5.0 L118.0,4.0 L113.0,4.0 L112.0,3.0 L83.0,3.0 L82.0,4.0 L77.0,4.0 L76.0,5.0 L72.0,5.0 L71.0,6.0 L67.0,6.0 L66.0,7.0 L64.0,7.0 L63.0,8.0 Z" fill="#222222" fill-rule="evenodd"/>
</svg>
