<svg xmlns="http://www.w3.org/2000/svg" viewBox="0 0 800 800" width="800" height="800"><g fill="#ffbf00" fill-rule="evenodd" stroke="none">
<path d="M 474.00,624.50 L 124.00,623.50 L 99.00,618.50 L 90.00,613.50 L 82.50,606.00 L 78.50,599.00 L 74.50,586.00 L 73.50,566.00 L 72.50,565.00 L 71.50,412.00 L 70.50,411.00 L 70.50,255.00 L 73.50,225.00 L 77.50,215.00 L 85.00,205.50 L 100.00,197.50 L 123.00,193.50 L 344.00,192.50 L 337.50,134.00 L 335.50,99.00 L 339.00,94.50 L 348.00,88.50 L 364.00,81.50 L 386.00,77.50 L 401.00,77.50 L 414.00,79.50 L 430.00,84.50 L 443.00,91.50 L 449.50,98.00 L 450.50,102.00 L 449.50,117.00 L 440.50,186.00 L 441.00,192.50 L 644.00,192.50 L 675.00,196.50 L 688.00,201.50 L 698.50,210.00 L 706.50,224.00 L 709.50,239.00 L 710.50,273.00 L 711.50,274.00 L 711.50,306.00 L 712.50,307.00 L 712.50,349.00 L 713.50,350.00 L 713.50,421.00 L 714.50,422.00 L 713.50,566.00 L 710.50,588.00 L 706.50,598.00 L 695.00,610.50 L 682.00,616.50 L 663.00,620.50 L 634.00,621.50 L 633.00,622.50 L 475.00,623.50 L 474.00,624.50 Z"/>
<path d="M 402.50,227.00 L 410.00,225.50 L 411.50,221.00 L 415.50,164.00 L 422.50,102.00 L 417.00,99.50 L 401.00,96.50 L 377.00,97.50 L 362.00,102.50 L 354.50,107.00 L 358.50,155.00 L 366.50,216.00 L 368.50,223.00 L 374.00,225.50 L 384.00,227.50 L 402.50,227.00 Z"/>
<path d="M 518.50,605.00 L 597.00,604.50 L 598.00,603.50 L 632.00,603.50 L 633.00,602.50 L 663.00,601.50 L 682.00,596.50 L 688.50,591.00 L 691.50,586.00 L 694.50,570.00 L 694.50,541.00 L 695.50,540.00 L 695.50,399.00 L 694.50,398.00 L 693.50,298.00 L 692.50,297.00 L 692.50,268.00 L 691.50,267.00 L 690.50,238.00 L 686.50,225.00 L 681.00,219.50 L 673.00,215.50 L 665.00,213.50 L 646.00,211.50 L 437.50,212.00 L 436.00,222.50 L 611.00,222.50 L 612.00,223.50 L 631.00,223.50 L 644.00,225.50 L 660.00,230.50 L 666.00,234.50 L 672.50,242.00 L 676.50,252.00 L 679.50,277.00 L 680.50,339.00 L 681.50,340.00 L 681.50,393.00 L 682.50,394.00 L 682.50,527.00 L 681.50,528.00 L 681.50,551.00 L 678.50,566.00 L 673.50,575.00 L 667.00,581.50 L 660.00,585.50 L 645.00,589.50 L 626.00,591.50 L 600.00,591.50 L 599.00,592.50 L 535.00,592.50 L 534.00,593.50 L 166.00,593.50 L 165.00,592.50 L 139.00,591.50 L 128.00,588.50 L 121.00,584.50 L 113.50,576.00 L 108.50,561.00 L 107.50,526.00 L 106.50,525.00 L 105.50,265.00 L 107.50,251.00 L 111.50,241.00 L 118.00,233.50 L 126.00,228.50 L 137.00,225.50 L 154.00,223.50 L 349.00,223.50 L 349.50,222.00 L 347.00,211.50 L 132.00,211.50 L 105.00,215.50 L 99.00,218.50 L 95.50,222.00 L 91.50,231.00 L 89.50,247.00 L 90.50,521.00 L 91.50,522.00 L 92.50,580.00 L 95.50,591.00 L 101.00,598.50 L 110.00,602.50 L 125.00,604.50 L 179.00,604.50 L 180.00,605.50 L 518.50,605.00 Z"/>
<path d="M 480.50,581.00 L 621.00,579.50 L 641.00,577.50 L 649.50,575.00 L 651.50,507.00 L 652.50,506.00 L 653.50,426.00 L 652.50,425.00 L 652.50,352.00 L 651.50,351.00 L 650.50,267.00 L 649.50,266.00 L 649.50,241.00 L 648.00,239.50 L 641.00,237.50 L 621.00,235.50 L 432.00,235.50 L 425.00,240.50 L 413.00,244.50 L 399.00,246.50 L 386.00,246.50 L 373.00,244.50 L 364.00,241.50 L 357.00,238.50 L 354.00,235.50 L 184.00,235.50 L 183.00,236.50 L 141.00,237.50 L 128.00,241.50 L 122.50,247.00 L 118.50,260.00 L 118.50,280.00 L 117.50,281.00 L 117.50,401.00 L 118.50,402.00 L 119.50,547.00 L 123.50,568.00 L 130.00,575.50 L 142.00,579.50 L 152.00,580.50 L 480.50,581.00 Z"/>
<path d="M 366.00,527.50 L 179.00,526.50 L 178.00,525.50 L 163.00,525.50 L 161.50,524.00 L 157.50,510.00 L 157.50,486.00 L 162.50,465.00 L 169.50,451.00 L 177.00,441.50 L 192.00,429.50 L 206.00,422.50 L 227.00,416.50 L 235.50,408.00 L 224.50,394.00 L 217.50,380.00 L 209.50,353.00 L 209.50,343.00 L 208.50,342.00 L 209.50,329.00 L 212.50,318.00 L 216.50,310.00 L 221.50,303.00 L 233.00,293.50 L 243.00,288.50 L 254.00,285.50 L 263.00,284.50 L 280.00,285.50 L 293.00,289.50 L 301.00,294.50 L 311.50,307.00 L 317.50,323.00 L 319.50,333.00 L 319.50,357.00 L 316.50,372.00 L 312.50,383.00 L 307.50,393.00 L 298.50,404.00 L 298.50,409.00 L 301.50,414.00 L 310.00,420.50 L 317.00,422.50 L 330.00,423.50 L 344.00,429.50 L 352.00,435.50 L 361.50,447.00 L 368.50,462.00 L 373.50,489.00 L 373.50,504.00 L 371.50,520.00 L 369.50,525.00 L 366.00,527.50 Z"/>
<path d="M 516.00,353.50 L 420.00,353.50 L 418.00,352.50 L 414.50,348.00 L 414.50,294.00 L 417.00,290.50 L 420.00,289.50 L 611.00,289.50 L 615.00,290.50 L 617.50,293.00 L 618.50,296.00 L 618.50,345.00 L 617.50,349.00 L 615.00,351.50 L 613.00,352.50 L 517.00,352.50 L 516.00,353.50 Z"/>
<path d="M 270.50,408.00 L 274.00,407.50 L 283.00,402.50 L 287.50,398.00 L 292.50,389.00 L 301.50,362.00 L 302.50,338.00 L 298.50,323.00 L 293.50,315.00 L 285.00,306.50 L 271.00,298.50 L 258.00,297.50 L 247.00,300.50 L 239.00,304.50 L 229.50,313.00 L 222.50,328.00 L 221.50,347.00 L 227.50,371.00 L 238.50,392.00 L 251.00,403.50 L 260.00,407.50 L 270.50,408.00 Z"/>
<path d="M 746.00,570.50 L 740.00,570.50 L 737.50,568.00 L 737.50,316.00 L 738.50,312.00 L 742.00,309.50 L 747.00,309.50 L 750.50,314.00 L 749.50,567.00 L 746.00,570.50 Z"/>
<path d="M 575.00,425.50 L 428.00,425.50 L 416.00,423.50 L 413.50,420.00 L 413.50,416.00 L 417.00,412.50 L 617.00,412.50 L 620.50,416.00 L 620.50,420.00 L 617.00,424.50 L 576.00,424.50 L 575.00,425.50 Z"/>
<path d="M 349.50,515.00 L 351.50,499.00 L 351.50,476.00 L 350.50,471.00 L 342.50,456.00 L 334.00,447.50 L 325.00,442.50 L 293.00,431.50 L 287.50,427.00 L 281.00,417.50 L 273.00,420.50 L 262.00,420.50 L 253.00,418.50 L 246.00,414.50 L 237.00,425.50 L 228.00,429.50 L 212.00,433.50 L 201.00,438.50 L 192.00,444.50 L 180.50,457.00 L 174.50,469.00 L 170.50,483.00 L 169.50,503.00 L 171.00,513.50 L 349.50,515.00 Z"/>
<path d="M 273.00,458.50 L 264.00,458.50 L 250.00,455.50 L 235.00,447.50 L 231.50,444.00 L 230.50,440.00 L 234.00,435.50 L 238.00,434.50 L 257.00,444.50 L 277.00,445.50 L 286.00,442.50 L 295.00,437.50 L 298.00,437.50 L 302.50,442.00 L 302.50,446.00 L 298.00,450.50 L 284.00,456.50 L 273.00,458.50 Z"/>
<path d="M 613.00,473.50 L 420.00,473.50 L 416.00,472.50 L 413.50,470.00 L 413.50,464.00 L 418.00,460.50 L 423.00,461.50 L 616.00,460.50 L 620.50,467.00 L 617.00,472.50 L 613.00,473.50 Z"/>
<path d="M 537.00,519.50 L 428.00,519.50 L 427.00,518.50 L 417.00,518.50 L 413.50,515.00 L 413.50,510.00 L 417.00,506.50 L 617.00,506.50 L 619.50,509.00 L 620.50,513.00 L 618.50,517.00 L 616.00,518.50 L 538.00,518.50 L 537.00,519.50 Z"/>
<path d="M 473.00,665.50 L 359.00,665.50 L 355.50,660.00 L 360.00,653.50 L 469.00,653.50 L 470.00,652.50 L 475.00,654.50 L 476.50,657.00 L 476.50,662.00 L 473.00,665.50 Z"/>
<path d="M 227.00,667.50 L 126.00,667.50 L 122.50,664.00 L 122.50,659.00 L 126.00,655.50 L 160.00,655.50 L 161.00,654.50 L 325.00,653.50 L 330.50,657.00 L 330.50,663.00 L 326.00,666.50 L 228.00,666.50 L 227.00,667.50 Z"/>
</g></svg>